<svg width="17" height="17" viewBox="0 0 17 17" fill="none" xmlns="http://www.w3.org/2000/svg">
<path d="M7.0835 7.79167L7.0835 12.75M9.91683 7.79167V12.75M13.4585 5.66667L12.7502 14.3438C12.7502 14.6725 12.6009 14.9878 12.3352 15.2203C12.0696 15.4527 11.7092 15.5833 11.3335 15.5833H5.66683C5.29111 15.5833 4.93077 15.4527 4.66509 15.2203C4.39942 14.9878 4.25016 14.6725 4.25016 14.3438L3.54183 5.66667H13.4585ZM6.37516 2.83333V2.125C6.37516 1.7338 6.69229 1.41667 7.0835 1.41667H9.91683C10.308 1.41667 10.6252 1.7338 10.6252 2.125V2.83333C10.6252 3.22454 10.308 3.54167 9.91683 3.54167H7.0835C6.69229 3.54167 6.37516 3.22454 6.37516 2.83333ZM2.8335 5.3125V3.89583C2.8335 3.70023 2.99206 3.54167 3.18766 3.54167H13.8127C14.0083 3.54167 14.1668 3.70023 14.1668 3.89583V5.3125C14.1668 5.5081 14.0083 5.66667 13.8127 5.66667H3.18766C2.99206 5.66667 2.8335 5.5081 2.8335 5.3125Z" stroke="#687684" stroke-linecap="round" stroke-linejoin="round"/>
</svg>
