<svg width="94" height="32" viewBox="0 0 94 32" fill="none" xmlns="http://www.w3.org/2000/svg">
<rect x="1" y="0.5" width="92" height="31" rx="15.5" stroke="#B7E6CB"/>
<path d="M13.75 21C13.5633 21 13.4513 20.986 13.414 20.958C13.3767 20.9207 13.358 20.7993 13.358 20.594V10.808C13.358 10.6213 13.372 10.514 13.4 10.486C13.4373 10.4487 13.5447 10.43 13.722 10.43H18.692C18.7947 10.43 18.8553 10.4487 18.874 10.486C18.8927 10.514 18.902 10.57 18.902 10.654V11.69C18.902 11.7833 18.888 11.8487 18.86 11.886C18.832 11.914 18.776 11.928 18.692 11.928H14.898V14.784H18.51C18.65 14.784 18.72 14.8587 18.72 15.008V16.058C18.72 16.2167 18.65 16.296 18.51 16.296H14.898V19.488H18.86C18.9907 19.488 19.056 19.5673 19.056 19.726V20.776C19.056 20.9253 18.9907 21 18.86 21H13.75ZM26.0124 21.014C25.8724 21.014 25.8024 20.9393 25.8024 20.79V20.258C25.6157 20.5193 25.3404 20.7387 24.9764 20.916C24.6124 21.0933 24.2437 21.182 23.8704 21.182C23.3664 21.182 22.9137 21.0887 22.5124 20.902C22.1204 20.706 21.7844 20.4307 21.5044 20.076C21.2337 19.712 21.0237 19.2733 20.8744 18.76C20.7344 18.2467 20.6644 17.668 20.6644 17.024C20.6644 16.3987 20.7391 15.834 20.8884 15.33C21.0377 14.8167 21.2477 14.3827 21.5184 14.028C21.7984 13.6733 22.1344 13.398 22.5264 13.202C22.9277 13.006 23.3757 12.908 23.8704 12.908C24.2437 12.908 24.5937 12.9827 24.9204 13.132C25.2564 13.2813 25.5504 13.4913 25.8024 13.762V9.772C25.8024 9.69733 25.8117 9.65067 25.8304 9.632C25.8584 9.604 25.9051 9.59 25.9704 9.59H27.1184C27.2397 9.59 27.3004 9.65067 27.3004 9.772V20.79C27.3004 20.8647 27.2771 20.9207 27.2304 20.958C27.1837 20.9953 27.1324 21.014 27.0764 21.014H26.0124ZM24.0244 14.336C23.4457 14.336 23.0024 14.574 22.6944 15.05C22.3864 15.5167 22.2324 16.1747 22.2324 17.024C22.2324 17.9387 22.3911 18.6247 22.7084 19.082C23.0257 19.5393 23.4644 19.768 24.0244 19.768C24.2671 19.768 24.4957 19.7073 24.7104 19.586C24.9251 19.4647 25.1117 19.2873 25.2704 19.054C25.4384 18.8207 25.5691 18.536 25.6624 18.2C25.7557 17.8547 25.8024 17.4627 25.8024 17.024C25.8024 16.1187 25.6437 15.4467 25.3264 15.008C25.0184 14.56 24.5844 14.336 24.0244 14.336ZM29.3326 21.714C29.286 21.714 29.244 21.6953 29.2066 21.658C29.1786 21.63 29.1646 21.5927 29.1646 21.546V14.168C29.1646 14.1213 29.1786 14.084 29.2066 14.056C29.244 14.0187 29.286 14 29.3326 14H30.5086C30.5553 14 30.5926 14.0187 30.6206 14.056C30.658 14.084 30.6766 14.1213 30.6766 14.168V21.546C30.6766 21.5927 30.658 21.63 30.6206 21.658C30.5926 21.6953 30.5553 21.714 30.5086 21.714H29.3326ZM29.9346 12.474C29.664 12.474 29.4353 12.3853 29.2486 12.208C29.0713 12.0213 28.9826 11.7973 28.9826 11.536C28.9826 11.2653 29.0713 11.0367 29.2486 10.85C29.4353 10.6633 29.664 10.57 29.9346 10.57C30.2053 10.57 30.434 10.6633 30.6206 10.85C30.8073 11.0367 30.9006 11.2653 30.9006 11.536C30.9006 11.7973 30.8073 12.0213 30.6206 12.208C30.434 12.3853 30.2053 12.474 29.9346 12.474ZM36.3313 20.86C36.2006 20.944 35.9906 21.0187 35.7013 21.084C35.4213 21.1587 35.1179 21.196 34.7913 21.196C34.3993 21.196 34.0866 21.1167 33.8533 20.958C33.6199 20.79 33.4473 20.5987 33.3353 20.384C33.2046 20.1413 33.1253 19.8567 33.0973 19.53C33.0693 19.2033 33.0553 18.76 33.0553 18.2V14.686H31.8933C31.8466 14.686 31.8046 14.672 31.7673 14.644C31.7393 14.6067 31.7253 14.5647 31.7253 14.518V13.412C31.7253 13.3653 31.7393 13.328 31.7673 13.3C31.8046 13.2627 31.8466 13.244 31.8933 13.244H33.0553V11.284C33.0553 11.2373 33.0739 11.2 33.1113 11.172C33.1486 11.1347 33.1906 11.116 33.2373 11.116H34.3713C34.4273 11.116 34.4693 11.1347 34.4973 11.172C34.5346 11.2 34.5533 11.2373 34.5533 11.284V13.244H35.8973C35.9439 13.244 35.9813 13.2627 36.0093 13.3C36.0466 13.328 36.0653 13.3653 36.0653 13.412V14.518C36.0653 14.5647 36.0466 14.6067 36.0093 14.644C35.9813 14.672 35.9439 14.686 35.8973 14.686H34.5533V18.298C34.5533 18.9327 34.5673 19.334 34.5953 19.502C34.6326 19.67 34.7213 19.7727 34.8613 19.81C35.0013 19.8473 35.1599 19.8567 35.3373 19.838C35.4586 19.8193 35.5939 19.796 35.7433 19.768C35.8926 19.7307 36.0233 19.6887 36.1353 19.642C36.1819 19.6233 36.2146 19.6233 36.2333 19.642C36.2519 19.6513 36.2706 19.6933 36.2893 19.768L36.4013 20.692C36.4106 20.7573 36.3873 20.8133 36.3313 20.86ZM44.465 21.322C44.0917 21.322 43.7324 21.2427 43.387 21.084C43.0417 20.9253 42.7524 20.7107 42.519 20.44V22.932C42.519 23.0067 42.5097 23.0533 42.491 23.072C42.4724 23.1 42.4304 23.114 42.365 23.114H41.203C41.147 23.114 41.105 23.1 41.077 23.072C41.049 23.0533 41.035 23.0067 41.035 22.932V13.44C41.035 13.2907 41.105 13.216 41.245 13.216H42.323C42.4537 13.216 42.519 13.2907 42.519 13.44V13.944C42.7804 13.6733 43.0744 13.4633 43.401 13.314C43.7277 13.1647 44.0824 13.09 44.465 13.09C44.969 13.09 45.417 13.188 45.809 13.384C46.2104 13.5707 46.5464 13.8413 46.817 14.196C47.097 14.5507 47.307 14.9847 47.447 15.498C47.5964 16.0113 47.671 16.59 47.671 17.234C47.671 17.8593 47.5964 18.424 47.447 18.928C47.2977 19.432 47.083 19.8613 46.803 20.216C46.5324 20.5707 46.1964 20.8413 45.795 21.028C45.403 21.224 44.9597 21.322 44.465 21.322ZM44.311 14.518C44.0684 14.518 43.8397 14.5787 43.625 14.7C43.4104 14.812 43.219 14.9847 43.051 15.218C42.8924 15.442 42.7617 15.722 42.659 16.058C42.5657 16.394 42.519 16.7813 42.519 17.22C42.519 18.1347 42.6824 18.8113 43.009 19.25C43.3357 19.6887 43.7697 19.908 44.311 19.908C44.8897 19.908 45.333 19.6747 45.641 19.208C45.949 18.7413 46.103 18.0787 46.103 17.22C46.103 16.3147 45.9444 15.638 45.627 15.19C45.3097 14.742 44.871 14.518 44.311 14.518ZM53.1473 14.644C52.9606 14.5973 52.7973 14.5693 52.6573 14.56C52.5173 14.5413 52.3959 14.5413 52.2933 14.56C52.0133 14.616 51.7846 14.7373 51.6073 14.924C51.4393 15.1013 51.3086 15.3113 51.2153 15.554C51.1313 15.7967 51.0753 16.058 51.0473 16.338C51.0193 16.618 51.0053 16.884 51.0053 17.136V20.776C51.0053 20.9067 50.9493 20.972 50.8373 20.972H49.6753C49.5726 20.972 49.5213 20.902 49.5213 20.762V15.12C49.5213 14.8213 49.5166 14.5227 49.5073 14.224C49.4979 13.9253 49.4933 13.664 49.4933 13.44C49.4933 13.356 49.5073 13.3047 49.5353 13.286C49.5633 13.258 49.6099 13.244 49.6753 13.244H50.8373C50.9026 13.244 50.9399 13.2533 50.9493 13.272C50.9586 13.2907 50.9633 13.3233 50.9633 13.37V13.986C51.0286 13.874 51.1126 13.762 51.2153 13.65C51.3273 13.538 51.4439 13.44 51.5653 13.356C51.6959 13.2627 51.8266 13.1927 51.9573 13.146C52.0879 13.09 52.2093 13.062 52.3213 13.062C52.4986 13.062 52.6573 13.0667 52.7973 13.076C52.9466 13.076 53.1006 13.1227 53.2593 13.216C53.3059 13.2347 53.3339 13.2673 53.3433 13.314C53.3526 13.3513 53.3573 13.3887 53.3573 13.426V14.476C53.3573 14.5133 53.3433 14.5553 53.3153 14.602C53.2873 14.6487 53.2313 14.6627 53.1473 14.644ZM60.2172 19.908C59.8812 20.328 59.4799 20.65 59.0132 20.874C58.5465 21.0887 58.0192 21.196 57.4312 21.196C56.8339 21.196 56.3065 21.0887 55.8492 20.874C55.3919 20.6593 55.0092 20.3653 54.7012 19.992C54.3932 19.6187 54.1599 19.1847 54.0012 18.69C53.8519 18.1953 53.7772 17.668 53.7772 17.108C53.7772 16.548 53.8519 16.0207 54.0012 15.526C54.1599 15.0313 54.3932 14.602 54.7012 14.238C55.0092 13.8647 55.3872 13.5707 55.8352 13.356C56.2925 13.1413 56.8245 13.034 57.4312 13.034C58.0285 13.034 58.5559 13.1413 59.0132 13.356C59.4705 13.5707 59.8532 13.8647 60.1612 14.238C60.4692 14.602 60.6979 15.0313 60.8472 15.526C61.0059 16.0207 61.0852 16.548 61.0852 17.108C61.0852 17.6587 61.0105 18.1767 60.8612 18.662C60.7119 19.138 60.4972 19.5533 60.2172 19.908ZM57.4312 14.406C57.0672 14.406 56.7499 14.4853 56.4792 14.644C56.2179 14.8027 56.0032 15.0127 55.8352 15.274C55.6672 15.526 55.5412 15.8153 55.4572 16.142C55.3732 16.4593 55.3312 16.7813 55.3312 17.108C55.3312 17.4347 55.3732 17.7613 55.4572 18.088C55.5412 18.4053 55.6672 18.6947 55.8352 18.956C56.0032 19.2173 56.2179 19.4273 56.4792 19.586C56.7499 19.7447 57.0672 19.824 57.4312 19.824C57.7952 19.824 58.1079 19.7447 58.3692 19.586C58.6399 19.4273 58.8592 19.2173 59.0272 18.956C59.1952 18.6947 59.3212 18.4053 59.4052 18.088C59.4892 17.7613 59.5312 17.4347 59.5312 17.108C59.5312 16.7907 59.4892 16.4733 59.4052 16.156C59.3212 15.8293 59.1952 15.54 59.0272 15.288C58.8592 15.0267 58.6399 14.8167 58.3692 14.658C58.1079 14.49 57.7952 14.406 57.4312 14.406ZM66.2674 10.682C66.2674 10.8407 66.2254 10.9107 66.1414 10.892C66.0294 10.864 65.9128 10.8407 65.7914 10.822C65.6701 10.794 65.5534 10.78 65.4414 10.78C65.2081 10.78 65.0401 10.8407 64.9374 10.962C64.8348 11.074 64.7601 11.2187 64.7134 11.396C64.6948 11.4893 64.6761 11.6153 64.6574 11.774C64.6388 11.9327 64.6294 12.11 64.6294 12.306V13.244H65.9734C66.0854 13.244 66.1414 13.3 66.1414 13.412V14.49C66.1414 14.5367 66.1228 14.5787 66.0854 14.616C66.0574 14.644 66.0201 14.658 65.9734 14.658H64.6294V20.832C64.6294 20.944 64.5734 21 64.4614 21H63.3134C63.2014 21 63.1454 20.944 63.1454 20.832V14.658H61.9694C61.9228 14.658 61.8808 14.644 61.8434 14.616C61.8154 14.5787 61.8014 14.5367 61.8014 14.49V13.412C61.8014 13.3653 61.8154 13.328 61.8434 13.3C61.8808 13.2627 61.9228 13.244 61.9694 13.244H63.1314V12.404C63.1314 11.956 63.1594 11.55 63.2154 11.186C63.2808 10.822 63.3974 10.5 63.5654 10.22C63.7148 9.98667 63.9248 9.79533 64.1954 9.646C64.4754 9.48733 64.8254 9.408 65.2454 9.408C65.4321 9.408 65.6141 9.422 65.7914 9.45C65.9781 9.46867 66.1228 9.49667 66.2254 9.534C66.2908 9.57133 66.3234 9.63667 66.3234 9.73L66.2674 10.682ZM67.4854 21.714C67.4387 21.714 67.3967 21.6953 67.3594 21.658C67.3314 21.63 67.3174 21.5927 67.3174 21.546V14.168C67.3174 14.1213 67.3314 14.084 67.3594 14.056C67.3967 14.0187 67.4387 14 67.4854 14H68.6614C68.708 14 68.7454 14.0187 68.7734 14.056C68.8107 14.084 68.8294 14.1213 68.8294 14.168V21.546C68.8294 21.5927 68.8107 21.63 68.7734 21.658C68.7454 21.6953 68.708 21.714 68.6614 21.714H67.4854ZM68.0874 12.474C67.8167 12.474 67.588 12.3853 67.4014 12.208C67.224 12.0213 67.1354 11.7973 67.1354 11.536C67.1354 11.2653 67.224 11.0367 67.4014 10.85C67.588 10.6633 67.8167 10.57 68.0874 10.57C68.358 10.57 68.5867 10.6633 68.7734 10.85C68.96 11.0367 69.0534 11.2653 69.0534 11.536C69.0534 11.7973 68.96 12.0213 68.7734 12.208C68.5867 12.3853 68.358 12.474 68.0874 12.474ZM70.69 21C70.5873 21 70.536 20.944 70.536 20.832V9.8C70.536 9.75333 70.55 9.716 70.578 9.688C70.6153 9.65067 70.6573 9.632 70.704 9.632H71.88C71.9267 9.632 71.964 9.65067 71.992 9.688C72.0293 9.716 72.048 9.75333 72.048 9.8V20.832C72.048 20.8787 72.0293 20.9207 71.992 20.958C71.964 20.986 71.9267 21 71.88 21H70.69ZM79.7606 17.458C79.7606 17.5327 79.7373 17.5887 79.6906 17.626C79.6533 17.6633 79.6113 17.682 79.5646 17.682H74.9586C75.0053 18.3073 75.2013 18.8207 75.5466 19.222C75.892 19.614 76.3633 19.81 76.9606 19.81C77.2686 19.81 77.6186 19.7727 78.0106 19.698C78.4026 19.614 78.762 19.474 79.0886 19.278C79.154 19.2407 79.196 19.2453 79.2146 19.292C79.2333 19.3387 79.2426 19.3993 79.2426 19.474V20.44C79.2426 20.524 79.2286 20.5893 79.2006 20.636C79.1726 20.6827 79.1166 20.7293 79.0326 20.776C78.7526 20.9253 78.4213 21.0327 78.0386 21.098C77.6653 21.1633 77.2826 21.196 76.8906 21.196C75.7333 21.196 74.856 20.8507 74.2586 20.16C73.6706 19.46 73.3766 18.438 73.3766 17.094C73.3766 16.59 73.442 16.0953 73.5726 15.61C73.7033 15.1247 73.8993 14.6907 74.1606 14.308C74.4313 13.9253 74.772 13.6173 75.1826 13.384C75.5933 13.1507 76.0786 13.034 76.6386 13.034C77.208 13.034 77.6886 13.1413 78.0806 13.356C78.482 13.5707 78.8086 13.86 79.0606 14.224C79.3126 14.588 79.4946 15.0127 79.6066 15.498C79.7186 15.9833 79.7746 16.5013 79.7746 17.052C79.7746 17.1173 79.77 17.192 79.7606 17.276C79.7606 17.36 79.7606 17.4207 79.7606 17.458ZM76.6946 14.378C76.4426 14.378 76.2186 14.434 76.0226 14.546C75.8266 14.658 75.6586 14.8027 75.5186 14.98C75.3786 15.1573 75.262 15.3627 75.1686 15.596C75.0846 15.8293 75.024 16.0627 74.9866 16.296H78.1926C78.1926 16.1093 78.16 15.904 78.0946 15.68C78.0386 15.456 77.95 15.2507 77.8286 15.064C77.7073 14.868 77.5533 14.7047 77.3666 14.574C77.18 14.4433 76.956 14.378 76.6946 14.378Z" fill="#B7E6CB"/>
</svg>
