<svg width="18" height="18" viewBox="0 0 18 18" fill="none" xmlns="http://www.w3.org/2000/svg">
<g clip-path="url(#clip0_130_2742)">
<path d="M18 9C18 13.9707 13.9707 18 9 18C4.02928 18 0 13.9707 0 9C0 4.02928 4.02928 0 9 0C13.9707 0 18 4.02928 18 9Z" fill="#FF4E50"/>
<path d="M9.6511 3.51287L9.56858 3.59539C9.58455 3.79414 9.55349 3.99379 9.47985 4.18367C9.07612 5.22804 7.86938 6.01508 8.29351 7.25821C8.59342 8.13665 9.52244 9.36202 8.55261 10.1704C8.21011 10.4561 7.77355 10.5608 7.34853 10.6593C6.93149 10.7569 6.23939 10.8634 6.02554 11.299C5.88535 11.5838 5.99804 11.9574 5.98029 12.2644C5.96698 12.4942 5.93681 12.7258 5.86317 12.945C5.84808 12.9894 5.83122 13.0319 5.81348 13.0754L10.4772 17.7391L17.1773 11.039L9.6511 3.51287Z" fill="url(#paint0_linear_130_2742)"/>
<path d="M7.01406 7.5315C6.98744 8.51642 6.80022 9.45785 6.48877 10.3789L12.3867 16.2768L14.0735 14.5901L7.01495 7.5315H7.01406Z" fill="url(#paint1_linear_130_2742)"/>
<path d="M6.75577 7.43301C6.75577 7.43301 6.92613 8.22981 6.35736 8.96894C5.7886 9.70896 4.5366 10.9033 5.04858 12.0408C5.56056 13.1783 7.03882 14.3736 8.99712 14.4871C11.1595 14.6131 13.4683 12.268 13.0131 10.2201C12.5579 8.17214 9.998 6.35138 10.1684 5.38421C10.1684 5.38421 9.5996 6.18101 9.88354 6.80657C10.1684 7.43212 8.95807 7.71695 8.99445 6.46495C9.03083 5.21295 9.88443 4.87223 9.65639 3.50665C9.65639 3.50665 8.80279 4.64419 8.17724 5.21384C7.55169 5.78261 6.98203 6.74978 7.72205 7.88731C8.46207 9.02484 8.63243 10.2201 7.89241 9.87844C7.15328 9.53682 7.60847 7.60248 6.75488 7.43212L6.75577 7.43301Z" fill="white"/>
</g>
<defs>
<linearGradient id="paint0_linear_130_2742" x1="6.32584" y1="6.89868" x2="13.8084" y2="14.3813" gradientUnits="userSpaceOnUse">
<stop stop-color="#E50046"/>
<stop offset="1" stop-color="#FF4E50"/>
</linearGradient>
<linearGradient id="paint1_linear_130_2742" x1="5.74075" y1="7.92394" x2="13.2233" y2="15.4065" gradientUnits="userSpaceOnUse">
<stop stop-color="#E50046"/>
<stop offset="1" stop-color="#FF4E50"/>
</linearGradient>
<clipPath id="clip0_130_2742">
<rect width="18" height="18" fill="white"/>
</clipPath>
</defs>
</svg>
