<svg width="67" height="34" viewBox="0 0 67 34" fill="none" xmlns="http://www.w3.org/2000/svg">
<rect width="67" height="34" rx="14" fill="#B7E6CB"/>
<path d="M24.875 9.35417H24.125H24.875ZM24.3447 18.8863C24.0518 19.1792 24.0518 19.6541 24.3447 19.947C24.6376 20.2399 25.1124 20.2399 25.4053 19.947L24.3447 18.8863ZM38.7197 26.6553C39.0126 26.9482 39.4874 26.9482 39.7803 26.6553C40.0732 26.3624 40.0732 25.8876 39.7803 25.5947L38.7197 26.6553ZM28.3695 15.9222L27.8392 15.3918L27.8392 15.3918L28.3695 15.9222ZM41.375 9.35417V25.6458H42.875V9.35417H41.375ZM41.6458 25.375H25.3542V26.875H41.6458V25.375ZM25.625 25.6458V9.35417H24.125V25.6458H25.625ZM25.3542 9.625H41.6458V8.125H25.3542V9.625ZM25.625 9.35417C25.625 9.50374 25.5037 9.625 25.3542 9.625V8.125C24.6753 8.125 24.125 8.67532 24.125 9.35417H25.625ZM25.3542 25.375C25.5037 25.375 25.625 25.4963 25.625 25.6458H24.125C24.125 26.3247 24.6753 26.875 25.3542 26.875V25.375ZM41.375 25.6458C41.375 25.4963 41.4963 25.375 41.6458 25.375V26.875C42.3247 26.875 42.875 26.3247 42.875 25.6458H41.375ZM42.875 9.35417C42.875 8.67532 42.3247 8.125 41.6458 8.125V9.625C41.4963 9.625 41.375 9.50374 41.375 9.35417H42.875ZM25.4053 19.947L28.8998 16.4525L27.8392 15.3918L24.3447 18.8863L25.4053 19.947ZM28.5168 16.4525L38.7197 26.6553L39.7803 25.5947L29.5775 15.3918L28.5168 16.4525ZM28.8998 16.4525C28.7941 16.5583 28.6226 16.5583 28.5168 16.4525L29.5775 15.3918C29.0975 14.9118 28.3192 14.9118 27.8392 15.3918L28.8998 16.4525ZM34.9375 16.3333C36.6749 16.3333 38.0833 14.9249 38.0833 13.1875H36.5833C36.5833 14.0965 35.8465 14.8333 34.9375 14.8333V16.3333ZM38.0833 13.1875C38.0833 11.4501 36.6749 10.0417 34.9375 10.0417V11.5417C35.8465 11.5417 36.5833 12.2785 36.5833 13.1875H38.0833ZM34.9375 10.0417C33.2001 10.0417 31.7917 11.4501 31.7917 13.1875H33.2917C33.2917 12.2785 34.0285 11.5417 34.9375 11.5417V10.0417ZM31.7917 13.1875C31.7917 14.9249 33.2001 16.3333 34.9375 16.3333V14.8333C34.0285 14.8333 33.2917 14.0965 33.2917 13.1875H31.7917ZM35.4678 22.3428L42.6553 15.1553L41.5947 14.0947L34.4072 21.2822L35.4678 22.3428Z" fill="white"/>
</svg>
