<svg width="67" height="34" viewBox="0 0 67 34" fill="none" xmlns="http://www.w3.org/2000/svg">
<rect width="67" height="34" rx="14" fill="#B7E6CB"/>
<path d="M11.5 22.985C11.45 22.985 11.405 22.97 11.365 22.94C11.335 22.9 11.32 22.855 11.32 22.805V11.855C11.32 11.805 11.335 11.765 11.365 11.735C11.405 11.695 11.45 11.675 11.5 11.675H12.85C12.9 11.675 12.94 11.695 12.97 11.735C13.01 11.765 13.03 11.805 13.03 11.855V21.41H16.915C17.035 21.41 17.095 21.475 17.095 21.605V22.805C17.095 22.855 17.075 22.9 17.035 22.94C17.005 22.97 16.965 22.985 16.915 22.985H11.5ZM24.3556 21.83C23.9956 22.28 23.5656 22.625 23.0656 22.865C22.5656 23.095 22.0006 23.21 21.3706 23.21C20.7306 23.21 20.1656 23.095 19.6756 22.865C19.1856 22.635 18.7756 22.32 18.4456 21.92C18.1156 21.52 17.8656 21.055 17.6956 20.525C17.5356 19.995 17.4556 19.43 17.4556 18.83C17.4556 18.23 17.5356 17.665 17.6956 17.135C17.8656 16.605 18.1156 16.145 18.4456 15.755C18.7756 15.355 19.1806 15.04 19.6606 14.81C20.1506 14.58 20.7206 14.465 21.3706 14.465C22.0106 14.465 22.5756 14.58 23.0656 14.81C23.5556 15.04 23.9656 15.355 24.2956 15.755C24.6256 16.145 24.8706 16.605 25.0306 17.135C25.2006 17.665 25.2856 18.23 25.2856 18.83C25.2856 19.42 25.2056 19.975 25.0456 20.495C24.8856 21.005 24.6556 21.45 24.3556 21.83ZM21.3706 15.935C20.9806 15.935 20.6406 16.02 20.3506 16.19C20.0706 16.36 19.8406 16.585 19.6606 16.865C19.4806 17.135 19.3456 17.445 19.2556 17.795C19.1656 18.135 19.1206 18.48 19.1206 18.83C19.1206 19.18 19.1656 19.53 19.2556 19.88C19.3456 20.22 19.4806 20.53 19.6606 20.81C19.8406 21.09 20.0706 21.315 20.3506 21.485C20.6406 21.655 20.9806 21.74 21.3706 21.74C21.7606 21.74 22.0956 21.655 22.3756 21.485C22.6656 21.315 22.9006 21.09 23.0806 20.81C23.2606 20.53 23.3956 20.22 23.4856 19.88C23.5756 19.53 23.6206 19.18 23.6206 18.83C23.6206 18.49 23.5756 18.15 23.4856 17.81C23.3956 17.46 23.2606 17.15 23.0806 16.88C22.9006 16.6 22.6656 16.375 22.3756 16.205C22.0956 16.025 21.7606 15.935 21.3706 15.935ZM29.4573 25.31C29.0573 25.31 28.6623 25.28 28.2723 25.22C27.8823 25.17 27.4973 25.075 27.1173 24.935C27.0273 24.885 26.9623 24.845 26.9223 24.815C26.8923 24.785 26.8773 24.735 26.8773 24.665L26.9523 23.45C26.9723 23.26 27.0723 23.21 27.2523 23.3C27.5923 23.47 27.9573 23.595 28.3473 23.675C28.7473 23.765 29.1223 23.81 29.4723 23.81C30.1223 23.81 30.6373 23.64 31.0173 23.3C31.4073 22.96 31.6173 22.495 31.6473 21.905C31.3873 22.185 31.0823 22.395 30.7323 22.535C30.3823 22.675 30.0373 22.745 29.6973 22.745C29.1973 22.745 28.7323 22.65 28.3023 22.46C27.8723 22.26 27.5023 21.99 27.1923 21.65C26.8823 21.3 26.6373 20.885 26.4573 20.405C26.2873 19.925 26.2023 19.4 26.2023 18.83C26.2023 17.35 26.4973 16.255 27.0873 15.545C27.6873 14.835 28.5423 14.48 29.6523 14.48C29.8523 14.48 30.0523 14.505 30.2523 14.555C30.4623 14.605 30.6623 14.67 30.8523 14.75C31.0423 14.83 31.2173 14.925 31.3773 15.035C31.5373 15.135 31.6773 15.245 31.7973 15.365L31.7823 14.84C31.7723 14.76 31.7773 14.705 31.7973 14.675C31.8173 14.645 31.8773 14.63 31.9773 14.63H33.1623C33.2823 14.63 33.3423 14.705 33.3423 14.855V21.05C33.3423 22.4 33.0123 23.445 32.3523 24.185C31.6923 24.935 30.7273 25.31 29.4573 25.31ZM29.8323 15.95C29.2023 15.95 28.7173 16.18 28.3773 16.64C28.0473 17.1 27.8823 17.83 27.8823 18.83C27.8823 19.21 27.9323 19.55 28.0323 19.85C28.1323 20.15 28.2673 20.405 28.4373 20.615C28.6173 20.815 28.8173 20.97 29.0373 21.08C29.2673 21.19 29.5073 21.245 29.7573 21.245C30.0373 21.245 30.2973 21.19 30.5373 21.08C30.7773 20.97 30.9873 20.81 31.1673 20.6C31.3473 20.39 31.4873 20.135 31.5873 19.835C31.6973 19.535 31.7523 19.19 31.7523 18.8C31.7523 17.89 31.5823 17.19 31.2423 16.7C30.9023 16.2 30.4323 15.95 29.8323 15.95ZM41.549 21.83C41.189 22.28 40.759 22.625 40.259 22.865C39.759 23.095 39.194 23.21 38.564 23.21C37.924 23.21 37.359 23.095 36.869 22.865C36.379 22.635 35.969 22.32 35.639 21.92C35.309 21.52 35.059 21.055 34.889 20.525C34.729 19.995 34.649 19.43 34.649 18.83C34.649 18.23 34.729 17.665 34.889 17.135C35.059 16.605 35.309 16.145 35.639 15.755C35.969 15.355 36.374 15.04 36.854 14.81C37.344 14.58 37.914 14.465 38.564 14.465C39.204 14.465 39.769 14.58 40.259 14.81C40.749 15.04 41.159 15.355 41.489 15.755C41.819 16.145 42.064 16.605 42.224 17.135C42.394 17.665 42.479 18.23 42.479 18.83C42.479 19.42 42.399 19.975 42.239 20.495C42.079 21.005 41.849 21.45 41.549 21.83ZM38.564 15.935C38.174 15.935 37.834 16.02 37.544 16.19C37.264 16.36 37.034 16.585 36.854 16.865C36.674 17.135 36.539 17.445 36.449 17.795C36.359 18.135 36.314 18.48 36.314 18.83C36.314 19.18 36.359 19.53 36.449 19.88C36.539 20.22 36.674 20.53 36.854 20.81C37.034 21.09 37.264 21.315 37.544 21.485C37.834 21.655 38.174 21.74 38.564 21.74C38.954 21.74 39.289 21.655 39.569 21.485C39.859 21.315 40.094 21.09 40.274 20.81C40.454 20.53 40.589 20.22 40.679 19.88C40.769 19.53 40.814 19.18 40.814 18.83C40.814 18.49 40.769 18.15 40.679 17.81C40.589 17.46 40.454 17.15 40.274 16.88C40.094 16.6 39.859 16.375 39.569 16.205C39.289 16.025 38.954 15.935 38.564 15.935ZM49.0807 22.97C49.0307 22.97 48.9857 22.96 48.9457 22.94C48.9157 22.91 48.9057 22.87 48.9157 22.82V22.22C48.6557 22.54 48.3357 22.785 47.9557 22.955C47.5857 23.125 47.1957 23.21 46.7857 23.21C45.8157 23.21 45.0907 22.925 44.6107 22.355C44.1307 21.785 43.8907 20.97 43.8907 19.91V14.885C43.8907 14.835 43.9057 14.79 43.9357 14.75C43.9757 14.7 44.0207 14.675 44.0707 14.675H45.3007C45.3507 14.675 45.3957 14.7 45.4357 14.75C45.4757 14.8 45.4957 14.85 45.4957 14.9V19.67C45.4957 20.42 45.6157 20.95 45.8557 21.26C46.1057 21.57 46.4707 21.725 46.9507 21.725C47.4907 21.725 47.9357 21.52 48.2857 21.11C48.6457 20.7 48.8257 20.09 48.8257 19.28V14.885C48.8257 14.835 48.8407 14.79 48.8707 14.75C48.9107 14.7 48.9557 14.675 49.0057 14.675H50.2507C50.3007 14.675 50.3407 14.705 50.3707 14.765C50.4107 14.815 50.4307 14.865 50.4307 14.915V21.035C50.4307 21.345 50.4357 21.65 50.4457 21.95C50.4557 22.25 50.4607 22.525 50.4607 22.775C50.4607 22.905 50.4057 22.97 50.2957 22.97H49.0807ZM56.4923 22.85C56.3523 22.94 56.1273 23.02 55.8173 23.09C55.5173 23.17 55.1923 23.21 54.8423 23.21C54.4223 23.21 54.0873 23.125 53.8373 22.955C53.5873 22.775 53.4023 22.57 53.2823 22.34C53.1423 22.08 53.0573 21.775 53.0273 21.425C52.9973 21.075 52.9823 20.6 52.9823 20V16.235H51.7373C51.6873 16.235 51.6423 16.22 51.6023 16.19C51.5723 16.15 51.5573 16.105 51.5573 16.055V14.87C51.5573 14.82 51.5723 14.78 51.6023 14.75C51.6423 14.71 51.6873 14.69 51.7373 14.69H52.9823V12.59C52.9823 12.54 53.0023 12.5 53.0423 12.47C53.0823 12.43 53.1273 12.41 53.1773 12.41H54.3923C54.4523 12.41 54.4973 12.43 54.5273 12.47C54.5673 12.5 54.5873 12.54 54.5873 12.59V14.69H56.0273C56.0773 14.69 56.1173 14.71 56.1473 14.75C56.1873 14.78 56.2073 14.82 56.2073 14.87V16.055C56.2073 16.105 56.1873 16.15 56.1473 16.19C56.1173 16.22 56.0773 16.235 56.0273 16.235H54.5873V20.105C54.5873 20.785 54.6023 21.215 54.6323 21.395C54.6723 21.575 54.7673 21.685 54.9173 21.725C55.0673 21.765 55.2373 21.775 55.4273 21.755C55.5573 21.735 55.7023 21.71 55.8623 21.68C56.0223 21.64 56.1623 21.595 56.2823 21.545C56.3323 21.525 56.3673 21.525 56.3873 21.545C56.4073 21.555 56.4273 21.6 56.4473 21.68L56.5673 22.67C56.5773 22.74 56.5523 22.8 56.4923 22.85Z" fill="white"/>
</svg>
