<svg width="67" height="34" viewBox="0 0 67 34" fill="none" xmlns="http://www.w3.org/2000/svg">
<rect width="67" height="34" rx="14" fill="#B7E6CB"/>
<path d="M22.15 17.395V21.79C22.15 21.92 22.085 21.985 21.955 21.985H20.62C20.5 21.985 20.44 21.92 20.44 21.79V10.855C20.44 10.805 20.455 10.765 20.485 10.735C20.525 10.695 20.57 10.675 20.62 10.675H23.65C24.76 10.675 25.635 10.945 26.275 11.485C26.925 12.025 27.25 12.865 27.25 14.005C27.25 14.555 27.155 15.045 26.965 15.475C26.785 15.895 26.525 16.25 26.185 16.54C25.855 16.82 25.46 17.035 25 17.185C24.55 17.325 24.055 17.395 23.515 17.395H22.15ZM22.15 12.25V15.835H23.365C24.035 15.835 24.565 15.695 24.955 15.415C25.345 15.125 25.54 14.65 25.54 13.99C25.54 13.42 25.385 12.99 25.075 12.7C24.765 12.4 24.36 12.25 23.86 12.25H22.15ZM34.7472 20.83C34.3872 21.28 33.9572 21.625 33.4572 21.865C32.9572 22.095 32.3922 22.21 31.7622 22.21C31.1222 22.21 30.5572 22.095 30.0672 21.865C29.5772 21.635 29.1672 21.32 28.8372 20.92C28.5072 20.52 28.2572 20.055 28.0872 19.525C27.9272 18.995 27.8472 18.43 27.8472 17.83C27.8472 17.23 27.9272 16.665 28.0872 16.135C28.2572 15.605 28.5072 15.145 28.8372 14.755C29.1672 14.355 29.5722 14.04 30.0522 13.81C30.5422 13.58 31.1122 13.465 31.7622 13.465C32.4022 13.465 32.9672 13.58 33.4572 13.81C33.9472 14.04 34.3572 14.355 34.6872 14.755C35.0172 15.145 35.2622 15.605 35.4222 16.135C35.5922 16.665 35.6772 17.23 35.6772 17.83C35.6772 18.42 35.5972 18.975 35.4372 19.495C35.2772 20.005 35.0472 20.45 34.7472 20.83ZM31.7622 14.935C31.3722 14.935 31.0322 15.02 30.7422 15.19C30.4622 15.36 30.2322 15.585 30.0522 15.865C29.8722 16.135 29.7372 16.445 29.6472 16.795C29.5572 17.135 29.5122 17.48 29.5122 17.83C29.5122 18.18 29.5572 18.53 29.6472 18.88C29.7372 19.22 29.8722 19.53 30.0522 19.81C30.2322 20.09 30.4622 20.315 30.7422 20.485C31.0322 20.655 31.3722 20.74 31.7622 20.74C32.1522 20.74 32.4872 20.655 32.7672 20.485C33.0572 20.315 33.2922 20.09 33.4722 19.81C33.6522 19.53 33.7872 19.22 33.8772 18.88C33.9672 18.53 34.0122 18.18 34.0122 17.83C34.0122 17.49 33.9672 17.15 33.8772 16.81C33.7872 16.46 33.6522 16.15 33.4722 15.88C33.2922 15.6 33.0572 15.375 32.7672 15.205C32.4872 15.025 32.1522 14.935 31.7622 14.935ZM40.6739 21.67C40.1339 22.03 39.4939 22.21 38.7539 22.21C38.5539 22.21 38.3439 22.2 38.1239 22.18C37.9039 22.16 37.6889 22.135 37.4789 22.105C37.2789 22.075 37.0989 22.04 36.9389 22C36.7789 21.96 36.6539 21.92 36.5639 21.88C36.5239 21.86 36.4789 21.835 36.4289 21.805C36.3889 21.765 36.3739 21.705 36.3839 21.625L36.4739 20.65C36.4839 20.55 36.4989 20.49 36.5189 20.47C36.5389 20.45 36.6039 20.455 36.7139 20.485C37.0439 20.585 37.3839 20.66 37.7339 20.71C38.0939 20.75 38.4139 20.77 38.6939 20.77C39.1339 20.77 39.4589 20.66 39.6689 20.44C39.8889 20.22 39.9989 19.965 39.9989 19.675C39.9989 19.515 39.9439 19.355 39.8339 19.195C39.7239 19.025 39.5389 18.855 39.2789 18.685C39.0089 18.525 38.7289 18.365 38.4389 18.205C38.1489 18.035 37.8639 17.87 37.5839 17.71C37.2639 17.52 36.9939 17.27 36.7739 16.96C36.5639 16.64 36.4589 16.29 36.4589 15.91C36.4589 15.49 36.5339 15.13 36.6839 14.83C36.8339 14.52 37.0339 14.265 37.2839 14.065C37.5339 13.855 37.8189 13.705 38.1389 13.615C38.4689 13.515 38.8139 13.465 39.1739 13.465C39.3639 13.465 39.5589 13.475 39.7589 13.495C39.9689 13.515 40.1689 13.545 40.3589 13.585C40.5589 13.615 40.7339 13.655 40.8839 13.705C41.0439 13.745 41.1639 13.79 41.2439 13.84C41.2939 13.87 41.3189 13.9 41.3189 13.93C41.3289 13.95 41.3289 13.985 41.3189 14.035L41.2289 14.995C41.2189 15.105 41.1939 15.17 41.1539 15.19C41.1139 15.2 41.0389 15.195 40.9289 15.175C40.7389 15.105 40.5239 15.04 40.2839 14.98C40.1439 14.96 39.9939 14.94 39.8339 14.92C39.6839 14.9 39.4939 14.89 39.2639 14.89C38.8539 14.89 38.5639 14.985 38.3939 15.175C38.2239 15.365 38.1389 15.595 38.1389 15.865C38.1389 16.025 38.2339 16.195 38.4239 16.375C38.6139 16.555 38.8539 16.72 39.1439 16.87C39.4539 17.02 39.7389 17.175 39.9989 17.335C40.2689 17.495 40.4689 17.625 40.5989 17.725C40.9589 17.985 41.2289 18.27 41.4089 18.58C41.5889 18.88 41.6789 19.245 41.6789 19.675C41.6789 20.515 41.3439 21.18 40.6739 21.67ZM46.9513 21.85C46.8113 21.94 46.5863 22.02 46.2763 22.09C45.9763 22.17 45.6513 22.21 45.3013 22.21C44.8813 22.21 44.5463 22.125 44.2963 21.955C44.0463 21.775 43.8613 21.57 43.7413 21.34C43.6013 21.08 43.5163 20.775 43.4863 20.425C43.4563 20.075 43.4413 19.6 43.4413 19V15.235H42.1963C42.1463 15.235 42.1013 15.22 42.0613 15.19C42.0313 15.15 42.0163 15.105 42.0163 15.055V13.87C42.0163 13.82 42.0313 13.78 42.0613 13.75C42.1013 13.71 42.1463 13.69 42.1963 13.69H43.4413V11.59C43.4413 11.54 43.4613 11.5 43.5013 11.47C43.5413 11.43 43.5863 11.41 43.6363 11.41H44.8513C44.9113 11.41 44.9563 11.43 44.9863 11.47C45.0263 11.5 45.0463 11.54 45.0463 11.59V13.69H46.4863C46.5363 13.69 46.5763 13.71 46.6063 13.75C46.6463 13.78 46.6663 13.82 46.6663 13.87V15.055C46.6663 15.105 46.6463 15.15 46.6063 15.19C46.5763 15.22 46.5363 15.235 46.4863 15.235H45.0463V19.105C45.0463 19.785 45.0613 20.215 45.0913 20.395C45.1313 20.575 45.2263 20.685 45.3763 20.725C45.5263 20.765 45.6963 20.775 45.8863 20.755C46.0163 20.735 46.1613 20.71 46.3213 20.68C46.4813 20.64 46.6213 20.595 46.7413 20.545C46.7913 20.525 46.8263 20.525 46.8463 20.545C46.8663 20.555 46.8863 20.6 46.9063 20.68L47.0263 21.67C47.0363 21.74 47.0113 21.8 46.9513 21.85Z" fill="white"/>
</svg>
