<svg width="56" height="56" viewBox="0 0 56 56" fill="none" xmlns="http://www.w3.org/2000/svg">
<path d="M28 0C12.5308 0 0 12.5308 0 28C0 43.4692 12.5308 56 28 56C43.4692 56 56 43.4692 56 28C56 12.5308 43.4692 0 28 0ZM28 11.3655C31.8673 11.3655 34.9916 14.4897 34.9916 18.3571C34.9916 22.2244 31.8673 25.3486 28 25.3486C24.1327 25.3486 21.0084 22.2244 21.0084 18.3571C21.0084 14.4897 24.1327 11.3655 28 11.3655ZM37.5754 44.6345H18.4415C16.5669 44.6345 15.0302 43.1146 15.0302 41.2232C15.0302 34.0627 20.8396 28.2533 28 28.2533C35.1604 28.2533 40.9698 34.0627 40.9698 41.2232C40.9698 43.0977 39.4499 44.6345 37.5585 44.6345H37.5754Z" fill="#073A33"/>
</svg>
