<svg width="101" height="100" viewBox="0 0 101 100" fill="none" xmlns="http://www.w3.org/2000/svg">
<path d="M50 0C22.3764 0 0 22.3764 0 50C0 77.6236 22.3764 100 50 100C77.6236 100 100 77.6236 100 50C100 22.3764 77.6236 0 50 0ZM50 20.2955C56.9059 20.2955 62.4849 25.8745 62.4849 32.7805C62.4849 39.6864 56.9059 45.2654 50 45.2654C43.0941 45.2654 37.5151 39.6864 37.5151 32.7805C37.5151 25.8745 43.0941 20.2955 50 20.2955ZM67.0989 79.7045H32.9312C29.5838 79.7045 26.8396 76.9903 26.8396 73.6128C26.8396 60.8263 37.2135 50.4523 50 50.4523C62.7865 50.4523 73.1604 60.8263 73.1604 73.6128C73.1604 76.9602 70.4463 79.7045 67.0688 79.7045H67.0989Z" fill="#073A33"/>
<circle cx="85" cy="83" r="15" fill="#073A33" stroke="white" stroke-width="1.5"/>
<path d="M93.6544 88.235C93.6544 88.6317 93.4886 89.0122 93.1935 89.2927C92.8985 89.5732 92.4982 89.7308 92.0809 89.7308H77.9201C77.5028 89.7308 77.1026 89.5732 76.8075 89.2927C76.5125 89.0122 76.3467 88.6317 76.3467 88.235V80.0086C76.3467 79.6119 76.5125 79.2314 76.8075 78.9509C77.1026 78.6704 77.5028 78.5128 77.9201 78.5128H81.067L82.6404 76.2692H87.3607L88.9341 78.5128H92.0809C92.4982 78.5128 92.8985 78.6704 93.1935 78.9509C93.4886 79.2314 93.6544 79.6119 93.6544 80.0086V88.235Z" stroke="white" stroke-width="1.2" stroke-linecap="round" stroke-linejoin="round"/>
<path d="M85.0005 86.8462C86.5937 86.8462 87.8851 85.5547 87.8851 83.9615C87.8851 82.3684 86.5937 81.0769 85.0005 81.0769C83.4074 81.0769 82.1159 82.3684 82.1159 83.9615C82.1159 85.5547 83.4074 86.8462 85.0005 86.8462Z" stroke="white" stroke-width="1.2" stroke-linecap="round" stroke-linejoin="round"/>
</svg>
