<svg width="78" height="78" viewBox="0 0 78 78" fill="none" xmlns="http://www.w3.org/2000/svg">
<circle cx="39" cy="39" r="39" fill="white"/>
<path d="M39 5C20.2159 5 5 20.2159 5 39C5 57.7841 20.2159 73 39 73C57.7841 73 73 57.7841 73 39C73 20.2159 57.7841 5 39 5ZM39 18.801C43.696 18.801 47.4897 22.5947 47.4897 27.2907C47.4897 31.9867 43.696 35.7805 39 35.7805C34.304 35.7805 30.5103 31.9867 30.5103 27.2907C30.5103 22.5947 34.304 18.801 39 18.801ZM50.6273 59.199H27.3932C25.117 59.199 23.2509 57.3534 23.2509 55.0567C23.2509 46.3619 30.3052 39.3076 39 39.3076C47.6948 39.3076 54.7491 46.3619 54.7491 55.0567C54.7491 57.3329 52.9035 59.199 50.6068 59.199H50.6273Z" fill="#073A33"/>
</svg>
