<svg width="32" height="32" viewBox="0 0 32 32" fill="none" xmlns="http://www.w3.org/2000/svg">
<g clip-path="url(#clip0_120_2583)">
<path d="M16 2.09524C19.7143 2.09524 23.2057 3.54191 25.8324 6.16762C28.459 8.79429 29.9048 12.2857 29.9048 16C29.9048 19.7143 28.4581 23.2057 25.8324 25.8324C23.2057 28.459 19.7143 29.9048 16 29.9048C12.2857 29.9048 8.79429 28.4581 6.16762 25.8324C3.54095 23.2057 2.09524 19.7143 2.09524 16C2.09524 12.2857 3.54191 8.79429 6.16762 6.16762C8.79429 3.54095 12.2857 2.09524 16 2.09524ZM16 0C7.16381 0 0 7.16381 0 16C0 24.8362 7.16381 32 16 32C24.8362 32 32 24.8362 32 16C32 7.16381 24.8362 0 16 0Z" fill="#073A33"/>
<path d="M13.7141 12.7229V9.85715H12.1903V12.6886C11.3046 12.9867 10.6665 13.8238 10.6665 14.8095C10.6665 15.7952 11.3046 16.6324 12.1903 16.9305V22.4762H13.7141V16.8962C14.5503 16.5714 15.1427 15.76 15.1427 14.8095C15.1427 13.8591 14.5503 13.0476 13.7141 12.7229ZM13.7141 15.5448C13.5132 15.7657 13.2256 15.9048 12.9046 15.9048C12.6313 15.9048 12.3827 15.8038 12.1903 15.6381C11.9579 15.4371 11.8094 15.141 11.8094 14.8095C11.8094 14.4781 11.9579 14.1819 12.1903 13.981C12.3827 13.8152 12.6313 13.7143 12.9046 13.7143C13.2256 13.7143 13.5132 13.8543 13.7141 14.0743C13.8913 14.2686 13.9998 14.5267 13.9998 14.8095C13.9998 15.0924 13.8913 15.3505 13.7141 15.5448Z" fill="#073A33"/>
<path d="M20.0002 15.3552V9.85715H18.4764V15.3895C17.6402 15.7143 17.0479 16.5257 17.0479 17.4762C17.0479 18.4267 17.6402 19.2381 18.4764 19.5629V22.4762H20.0002V19.5971C20.8859 19.2991 21.524 18.4619 21.524 17.4762C21.524 16.4905 20.8859 15.6533 20.0002 15.3552ZM20.0002 18.3048C19.8079 18.4705 19.5593 18.5714 19.2859 18.5714C18.965 18.5714 18.6774 18.4314 18.4764 18.2114C18.2993 18.0171 18.1907 17.7591 18.1907 17.4762C18.1907 17.1933 18.2993 16.9352 18.4764 16.741C18.6774 16.52 18.965 16.381 19.2859 16.381C19.5593 16.381 19.8079 16.4819 20.0002 16.6476C20.2326 16.8486 20.3812 17.1448 20.3812 17.4762C20.3812 17.8076 20.2326 18.1038 20.0002 18.3048Z" fill="#073A33"/>
</g>
<defs>
<clipPath id="clip0_120_2583">
<rect width="32" height="32" fill="white"/>
</clipPath>
</defs>
</svg>
