<svg width="67" height="34" viewBox="0 0 67 34" fill="none" xmlns="http://www.w3.org/2000/svg">
<rect width="67" height="34" rx="14" fill="#B7E6CB"/>
<path d="M17.205 22.37C16.835 22.66 16.42 22.875 15.96 23.015C15.51 23.165 15.02 23.24 14.49 23.24C13.45 23.24 12.55 22.95 11.79 22.37C11.29 21.99 10.925 21.515 10.695 20.945C10.475 20.365 10.365 19.7 10.365 18.95V11.885C10.365 11.835 10.38 11.785 10.41 11.735C10.45 11.685 10.495 11.66 10.545 11.66H11.88C11.93 11.66 11.97 11.68 12 11.72C12.04 11.76 12.06 11.805 12.06 11.855V18.95C12.06 19.73 12.265 20.37 12.675 20.87C13.085 21.37 13.69 21.62 14.49 21.62C15.31 21.62 15.92 21.375 16.32 20.885C16.73 20.395 16.935 19.75 16.935 18.95V11.855C16.935 11.805 16.95 11.76 16.98 11.72C17.02 11.68 17.065 11.66 17.115 11.66H18.45C18.5 11.66 18.54 11.685 18.57 11.735C18.61 11.785 18.63 11.835 18.63 11.885V18.95C18.63 19.69 18.51 20.35 18.27 20.93C18.04 21.51 17.685 21.99 17.205 22.37ZM24.2284 23.345C23.8284 23.345 23.4434 23.26 23.0734 23.09C22.7034 22.92 22.3934 22.69 22.1434 22.4V25.07C22.1434 25.15 22.1334 25.2 22.1134 25.22C22.0934 25.25 22.0484 25.265 21.9784 25.265H20.7334C20.6734 25.265 20.6284 25.25 20.5984 25.22C20.5684 25.2 20.5534 25.15 20.5534 25.07V14.9C20.5534 14.74 20.6284 14.66 20.7784 14.66H21.9334C22.0734 14.66 22.1434 14.74 22.1434 14.9V15.44C22.4234 15.15 22.7384 14.925 23.0884 14.765C23.4384 14.605 23.8184 14.525 24.2284 14.525C24.7684 14.525 25.2484 14.63 25.6684 14.84C26.0984 15.04 26.4584 15.33 26.7484 15.71C27.0484 16.09 27.2734 16.555 27.4234 17.105C27.5834 17.655 27.6634 18.275 27.6634 18.965C27.6634 19.635 27.5834 20.24 27.4234 20.78C27.2634 21.32 27.0334 21.78 26.7334 22.16C26.4434 22.54 26.0834 22.83 25.6534 23.03C25.2334 23.24 24.7584 23.345 24.2284 23.345ZM24.0634 16.055C23.8034 16.055 23.5584 16.12 23.3284 16.25C23.0984 16.37 22.8934 16.555 22.7134 16.805C22.5434 17.045 22.4034 17.345 22.2934 17.705C22.1934 18.065 22.1434 18.48 22.1434 18.95C22.1434 19.93 22.3184 20.655 22.6684 21.125C23.0184 21.595 23.4834 21.83 24.0634 21.83C24.6834 21.83 25.1584 21.58 25.4884 21.08C25.8184 20.58 25.9834 19.87 25.9834 18.95C25.9834 17.98 25.8134 17.255 25.4734 16.775C25.1334 16.295 24.6634 16.055 24.0634 16.055ZM34.5801 23.015C34.4301 23.015 34.3551 22.935 34.3551 22.775V22.205C34.1551 22.485 33.8601 22.72 33.4701 22.91C33.0801 23.1 32.6851 23.195 32.2851 23.195C31.7451 23.195 31.2601 23.095 30.8301 22.895C30.4101 22.685 30.0501 22.39 29.7501 22.01C29.4601 21.62 29.2351 21.15 29.0751 20.6C28.9251 20.05 28.8501 19.43 28.8501 18.74C28.8501 18.07 28.9301 17.465 29.0901 16.925C29.2501 16.375 29.4751 15.91 29.7651 15.53C30.0651 15.15 30.4251 14.855 30.8451 14.645C31.2751 14.435 31.7551 14.33 32.2851 14.33C32.6851 14.33 33.0601 14.41 33.4101 14.57C33.7701 14.73 34.0851 14.955 34.3551 15.245V10.97C34.3551 10.89 34.3651 10.84 34.3851 10.82C34.4151 10.79 34.4651 10.775 34.5351 10.775H35.7651C35.8951 10.775 35.9601 10.84 35.9601 10.97V22.775C35.9601 22.855 35.9351 22.915 35.8851 22.955C35.8351 22.995 35.7801 23.015 35.7201 23.015H34.5801ZM32.4501 15.86C31.8301 15.86 31.3551 16.115 31.0251 16.625C30.6951 17.125 30.5301 17.83 30.5301 18.74C30.5301 19.72 30.7001 20.455 31.0401 20.945C31.3801 21.435 31.8501 21.68 32.4501 21.68C32.7101 21.68 32.9551 21.615 33.1851 21.485C33.4151 21.355 33.6151 21.165 33.7851 20.915C33.9651 20.665 34.1051 20.36 34.2051 20C34.3051 19.63 34.3551 19.21 34.3551 18.74C34.3551 17.77 34.1851 17.05 33.8451 16.58C33.5151 16.1 33.0501 15.86 32.4501 15.86ZM42.3668 22.97C42.2968 22.97 42.2518 22.965 42.2318 22.955C42.2118 22.935 42.2018 22.895 42.2018 22.835V22.16C41.9518 22.51 41.6318 22.775 41.2418 22.955C40.8618 23.125 40.4768 23.21 40.0868 23.21C39.6768 23.21 39.2968 23.155 38.9468 23.045C38.6068 22.935 38.3118 22.77 38.0618 22.55C37.8218 22.33 37.6318 22.06 37.4918 21.74C37.3518 21.41 37.2818 21.03 37.2818 20.6C37.2818 20.09 37.3718 19.645 37.5518 19.265C37.7318 18.875 38.0118 18.555 38.3918 18.305C38.7818 18.045 39.2768 17.855 39.8768 17.735C40.4768 17.605 41.2018 17.54 42.0518 17.54C42.0518 17.35 42.0318 17.16 41.9918 16.97C41.9518 16.78 41.8818 16.61 41.7818 16.46C41.6918 16.31 41.5618 16.19 41.3918 16.1C41.2218 16 41.0068 15.95 40.7468 15.95C40.2968 15.95 39.8868 16.01 39.5168 16.13C39.1568 16.25 38.8168 16.41 38.4968 16.61C38.3368 16.71 38.2268 16.755 38.1668 16.745C38.1168 16.735 38.0918 16.68 38.0918 16.58V15.44C38.0918 15.4 38.0868 15.36 38.0768 15.32C38.0768 15.27 38.0868 15.23 38.1068 15.2C38.1368 15.16 38.2118 15.105 38.3318 15.035C38.6718 14.865 39.0168 14.725 39.3668 14.615C39.7268 14.505 40.1768 14.45 40.7168 14.45C41.7268 14.45 42.4718 14.695 42.9518 15.185C43.4418 15.675 43.6868 16.445 43.6868 17.495V21.05C43.6868 21.33 43.6868 21.625 43.6868 21.935C43.6968 22.235 43.7168 22.5 43.7468 22.73C43.7668 22.89 43.7118 22.97 43.5818 22.97H42.3668ZM42.0968 18.965C40.9868 18.965 40.1918 19.1 39.7118 19.37C39.2318 19.64 38.9918 20.045 38.9918 20.585C38.9918 20.965 39.1018 21.25 39.3218 21.44C39.5418 21.63 39.8368 21.725 40.2068 21.725C40.7768 21.725 41.2318 21.515 41.5718 21.095C41.9218 20.675 42.0968 20.02 42.0968 19.13V18.965ZM49.6056 22.85C49.4656 22.94 49.2406 23.02 48.9306 23.09C48.6306 23.17 48.3056 23.21 47.9556 23.21C47.5356 23.21 47.2006 23.125 46.9506 22.955C46.7006 22.775 46.5156 22.57 46.3956 22.34C46.2556 22.08 46.1706 21.775 46.1406 21.425C46.1106 21.075 46.0956 20.6 46.0956 20V16.235H44.8506C44.8006 16.235 44.7556 16.22 44.7156 16.19C44.6856 16.15 44.6706 16.105 44.6706 16.055V14.87C44.6706 14.82 44.6856 14.78 44.7156 14.75C44.7556 14.71 44.8006 14.69 44.8506 14.69H46.0956V12.59C46.0956 12.54 46.1156 12.5 46.1556 12.47C46.1956 12.43 46.2406 12.41 46.2906 12.41H47.5056C47.5656 12.41 47.6106 12.43 47.6406 12.47C47.6806 12.5 47.7006 12.54 47.7006 12.59V14.69H49.1406C49.1906 14.69 49.2306 14.71 49.2606 14.75C49.3006 14.78 49.3206 14.82 49.3206 14.87V16.055C49.3206 16.105 49.3006 16.15 49.2606 16.19C49.2306 16.22 49.1906 16.235 49.1406 16.235H47.7006V20.105C47.7006 20.785 47.7156 21.215 47.7456 21.395C47.7856 21.575 47.8806 21.685 48.0306 21.725C48.1806 21.765 48.3506 21.775 48.5406 21.755C48.6706 21.735 48.8156 21.71 48.9756 21.68C49.1356 21.64 49.2756 21.595 49.3956 21.545C49.4456 21.525 49.4806 21.525 49.5006 21.545C49.5206 21.555 49.5406 21.6 49.5606 21.68L49.6806 22.67C49.6906 22.74 49.6656 22.8 49.6056 22.85ZM56.7898 19.205C56.7898 19.285 56.7648 19.345 56.7148 19.385C56.6748 19.425 56.6298 19.445 56.5798 19.445H51.6448C51.6948 20.115 51.9048 20.665 52.2748 21.095C52.6448 21.515 53.1498 21.725 53.7898 21.725C54.1198 21.725 54.4948 21.685 54.9148 21.605C55.3348 21.515 55.7198 21.365 56.0698 21.155C56.1398 21.115 56.1848 21.12 56.2048 21.17C56.2248 21.22 56.2348 21.285 56.2348 21.365V22.4C56.2348 22.49 56.2198 22.56 56.1898 22.61C56.1598 22.66 56.0998 22.71 56.0098 22.76C55.7098 22.92 55.3548 23.035 54.9448 23.105C54.5448 23.175 54.1348 23.21 53.7148 23.21C52.4748 23.21 51.5348 22.84 50.8948 22.1C50.2648 21.35 49.9498 20.255 49.9498 18.815C49.9498 18.275 50.0198 17.745 50.1598 17.225C50.2998 16.705 50.5098 16.24 50.7898 15.83C51.0798 15.42 51.4448 15.09 51.8848 14.84C52.3248 14.59 52.8448 14.465 53.4448 14.465C54.0548 14.465 54.5698 14.58 54.9898 14.81C55.4198 15.04 55.7698 15.35 56.0398 15.74C56.3098 16.13 56.5048 16.585 56.6248 17.105C56.7448 17.625 56.8048 18.18 56.8048 18.77C56.8048 18.84 56.7998 18.92 56.7898 19.01C56.7898 19.1 56.7898 19.165 56.7898 19.205ZM53.5048 15.905C53.2348 15.905 52.9948 15.965 52.7848 16.085C52.5748 16.205 52.3948 16.36 52.2448 16.55C52.0948 16.74 51.9698 16.96 51.8698 17.21C51.7798 17.46 51.7148 17.71 51.6748 17.96H55.1098C55.1098 17.76 55.0748 17.54 55.0048 17.3C54.9448 17.06 54.8498 16.84 54.7198 16.64C54.5898 16.43 54.4248 16.255 54.2248 16.115C54.0248 15.975 53.7848 15.905 53.5048 15.905Z" fill="white"/>
</svg>
