<svg width="94" height="32" viewBox="0 0 94 32" fill="none" xmlns="http://www.w3.org/2000/svg">
<rect x="1" y="0.5" width="92" height="31" rx="15.5" stroke="#B7E6CB"/>
<path d="M30.658 20.412C30.3127 20.6827 29.9253 20.8833 29.496 21.014C29.076 21.154 28.6187 21.224 28.124 21.224C27.1533 21.224 26.3133 20.9533 25.604 20.412C25.1373 20.0573 24.7967 19.614 24.582 19.082C24.3767 18.5407 24.274 17.92 24.274 17.22V10.626C24.274 10.5793 24.288 10.5327 24.316 10.486C24.3533 10.4393 24.3953 10.416 24.442 10.416H25.688C25.7347 10.416 25.772 10.4347 25.8 10.472C25.8373 10.5093 25.856 10.5513 25.856 10.598V17.22C25.856 17.948 26.0473 18.5453 26.43 19.012C26.8127 19.4787 27.3773 19.712 28.124 19.712C28.8893 19.712 29.4587 19.4833 29.832 19.026C30.2147 18.5687 30.406 17.9667 30.406 17.22V10.598C30.406 10.5513 30.42 10.5093 30.448 10.472C30.4853 10.4347 30.5273 10.416 30.574 10.416H31.82C31.8667 10.416 31.904 10.4393 31.932 10.486C31.9693 10.5327 31.988 10.5793 31.988 10.626V17.22C31.988 17.9107 31.876 18.5267 31.652 19.068C31.4373 19.6093 31.106 20.0573 30.658 20.412ZM37.4799 21.322C37.1065 21.322 36.7472 21.2427 36.4019 21.084C36.0565 20.9253 35.7672 20.7107 35.5339 20.44V22.932C35.5339 23.0067 35.5245 23.0533 35.5059 23.072C35.4872 23.1 35.4452 23.114 35.3799 23.114H34.2179C34.1619 23.114 34.1199 23.1 34.0919 23.072C34.0639 23.0533 34.0499 23.0067 34.0499 22.932V13.44C34.0499 13.2907 34.1199 13.216 34.2599 13.216H35.3379C35.4685 13.216 35.5339 13.2907 35.5339 13.44V13.944C35.7952 13.6733 36.0892 13.4633 36.4159 13.314C36.7425 13.1647 37.0972 13.09 37.4799 13.09C37.9839 13.09 38.4319 13.188 38.8239 13.384C39.2252 13.5707 39.5612 13.8413 39.8319 14.196C40.1119 14.5507 40.3219 14.9847 40.4619 15.498C40.6112 16.0113 40.6859 16.59 40.6859 17.234C40.6859 17.8593 40.6112 18.424 40.4619 18.928C40.3125 19.432 40.0979 19.8613 39.8179 20.216C39.5472 20.5707 39.2112 20.8413 38.8099 21.028C38.4179 21.224 37.9745 21.322 37.4799 21.322ZM37.3259 14.518C37.0832 14.518 36.8545 14.5787 36.6399 14.7C36.4252 14.812 36.2339 14.9847 36.0659 15.218C35.9072 15.442 35.7765 15.722 35.6739 16.058C35.5805 16.394 35.5339 16.7813 35.5339 17.22C35.5339 18.1347 35.6972 18.8113 36.0239 19.25C36.3505 19.6887 36.7845 19.908 37.3259 19.908C37.9045 19.908 38.3479 19.6747 38.6559 19.208C38.9639 18.7413 39.1179 18.0787 39.1179 17.22C39.1179 16.3147 38.9592 15.638 38.6419 15.19C38.3245 14.742 37.8859 14.518 37.3259 14.518ZM47.4081 21.014C47.2681 21.014 47.1981 20.9393 47.1981 20.79V20.258C47.0114 20.5193 46.7361 20.7387 46.3721 20.916C46.0081 21.0933 45.6394 21.182 45.2661 21.182C44.7621 21.182 44.3094 21.0887 43.9081 20.902C43.5161 20.706 43.1801 20.4307 42.9001 20.076C42.6294 19.712 42.4194 19.2733 42.2701 18.76C42.1301 18.2467 42.0601 17.668 42.0601 17.024C42.0601 16.3987 42.1348 15.834 42.2841 15.33C42.4334 14.8167 42.6434 14.3827 42.9141 14.028C43.1941 13.6733 43.5301 13.398 43.9221 13.202C44.3234 13.006 44.7714 12.908 45.2661 12.908C45.6394 12.908 45.9894 12.9827 46.3161 13.132C46.6521 13.2813 46.9461 13.4913 47.1981 13.762V9.772C47.1981 9.69733 47.2074 9.65067 47.2261 9.632C47.2541 9.604 47.3008 9.59 47.3661 9.59H48.5141C48.6354 9.59 48.6961 9.65067 48.6961 9.772V20.79C48.6961 20.8647 48.6728 20.9207 48.6261 20.958C48.5794 20.9953 48.5281 21.014 48.4721 21.014H47.4081ZM45.4201 14.336C44.8414 14.336 44.3981 14.574 44.0901 15.05C43.7821 15.5167 43.6281 16.1747 43.6281 17.024C43.6281 17.9387 43.7868 18.6247 44.1041 19.082C44.4214 19.5393 44.8601 19.768 45.4201 19.768C45.6628 19.768 45.8914 19.7073 46.1061 19.586C46.3208 19.4647 46.5074 19.2873 46.6661 19.054C46.8341 18.8207 46.9648 18.536 47.0581 18.2C47.1514 17.8547 47.1981 17.4627 47.1981 17.024C47.1981 16.1187 47.0394 15.4467 46.7221 15.008C46.4141 14.56 45.9801 14.336 45.4201 14.336ZM54.9423 20.972C54.877 20.972 54.835 20.9673 54.8163 20.958C54.7977 20.9393 54.7883 20.902 54.7883 20.846V20.216C54.555 20.5427 54.2563 20.79 53.8923 20.958C53.5377 21.1167 53.1783 21.196 52.8143 21.196C52.4317 21.196 52.077 21.1447 51.7503 21.042C51.433 20.9393 51.1577 20.7853 50.9243 20.58C50.7003 20.3747 50.523 20.1227 50.3923 19.824C50.2617 19.516 50.1963 19.1613 50.1963 18.76C50.1963 18.284 50.2803 17.8687 50.4483 17.514C50.6163 17.15 50.8777 16.8513 51.2323 16.618C51.5963 16.3753 52.0583 16.198 52.6183 16.086C53.1783 15.9647 53.855 15.904 54.6483 15.904C54.6483 15.7267 54.6297 15.5493 54.5923 15.372C54.555 15.1947 54.4897 15.036 54.3963 14.896C54.3123 14.756 54.191 14.644 54.0323 14.56C53.8737 14.4667 53.673 14.42 53.4303 14.42C53.0103 14.42 52.6277 14.476 52.2823 14.588C51.9463 14.7 51.629 14.8493 51.3303 15.036C51.181 15.1293 51.0783 15.1713 51.0223 15.162C50.9757 15.1527 50.9523 15.1013 50.9523 15.008V13.944C50.9523 13.9067 50.9477 13.8693 50.9383 13.832C50.9383 13.7853 50.9477 13.748 50.9663 13.72C50.9943 13.6827 51.0643 13.6313 51.1763 13.566C51.4937 13.4073 51.8157 13.2767 52.1423 13.174C52.4783 13.0713 52.8983 13.02 53.4023 13.02C54.345 13.02 55.0403 13.2487 55.4883 13.706C55.9457 14.1633 56.1743 14.882 56.1743 15.862V19.18C56.1743 19.4413 56.1743 19.7167 56.1743 20.006C56.1837 20.286 56.2023 20.5333 56.2303 20.748C56.249 20.8973 56.1977 20.972 56.0763 20.972H54.9423ZM54.6903 17.234C53.6543 17.234 52.9123 17.36 52.4643 17.612C52.0163 17.864 51.7923 18.242 51.7923 18.746C51.7923 19.1007 51.895 19.3667 52.1003 19.544C52.3057 19.7213 52.581 19.81 52.9263 19.81C53.4583 19.81 53.883 19.614 54.2003 19.222C54.527 18.83 54.6903 18.2187 54.6903 17.388V17.234ZM61.9653 20.86C61.8346 20.944 61.6246 21.0187 61.3353 21.084C61.0553 21.1587 60.7519 21.196 60.4253 21.196C60.0333 21.196 59.7206 21.1167 59.4873 20.958C59.2539 20.79 59.0813 20.5987 58.9693 20.384C58.8386 20.1413 58.7593 19.8567 58.7313 19.53C58.7033 19.2033 58.6893 18.76 58.6893 18.2V14.686H57.5273C57.4806 14.686 57.4386 14.672 57.4013 14.644C57.3733 14.6067 57.3593 14.5647 57.3593 14.518V13.412C57.3593 13.3653 57.3733 13.328 57.4013 13.3C57.4386 13.2627 57.4806 13.244 57.5273 13.244H58.6893V11.284C58.6893 11.2373 58.7079 11.2 58.7453 11.172C58.7826 11.1347 58.8246 11.116 58.8713 11.116H60.0053C60.0613 11.116 60.1033 11.1347 60.1313 11.172C60.1686 11.2 60.1873 11.2373 60.1873 11.284V13.244H61.5313C61.5779 13.244 61.6153 13.2627 61.6433 13.3C61.6806 13.328 61.6993 13.3653 61.6993 13.412V14.518C61.6993 14.5647 61.6806 14.6067 61.6433 14.644C61.6153 14.672 61.5779 14.686 61.5313 14.686H60.1873V18.298C60.1873 18.9327 60.2013 19.334 60.2293 19.502C60.2666 19.67 60.3553 19.7727 60.4953 19.81C60.6353 19.8473 60.7939 19.8567 60.9713 19.838C61.0926 19.8193 61.2279 19.796 61.3773 19.768C61.5266 19.7307 61.6573 19.6887 61.7693 19.642C61.8159 19.6233 61.8486 19.6233 61.8673 19.642C61.8859 19.6513 61.9046 19.6933 61.9233 19.768L62.0353 20.692C62.0446 20.7573 62.0213 20.8133 61.9653 20.86ZM68.9372 17.458C68.9372 17.5327 68.9139 17.5887 68.8672 17.626C68.8299 17.6633 68.7879 17.682 68.7412 17.682H64.1352C64.1819 18.3073 64.3779 18.8207 64.7232 19.222C65.0685 19.614 65.5399 19.81 66.1372 19.81C66.4452 19.81 66.7952 19.7727 67.1872 19.698C67.5792 19.614 67.9385 19.474 68.2652 19.278C68.3305 19.2407 68.3725 19.2453 68.3912 19.292C68.4099 19.3387 68.4192 19.3993 68.4192 19.474V20.44C68.4192 20.524 68.4052 20.5893 68.3772 20.636C68.3492 20.6827 68.2932 20.7293 68.2092 20.776C67.9292 20.9253 67.5979 21.0327 67.2152 21.098C66.8419 21.1633 66.4592 21.196 66.0672 21.196C64.9099 21.196 64.0325 20.8507 63.4352 20.16C62.8472 19.46 62.5532 18.438 62.5532 17.094C62.5532 16.59 62.6185 16.0953 62.7492 15.61C62.8799 15.1247 63.0759 14.6907 63.3372 14.308C63.6079 13.9253 63.9485 13.6173 64.3592 13.384C64.7699 13.1507 65.2552 13.034 65.8152 13.034C66.3845 13.034 66.8652 13.1413 67.2572 13.356C67.6585 13.5707 67.9852 13.86 68.2372 14.224C68.4892 14.588 68.6712 15.0127 68.7832 15.498C68.8952 15.9833 68.9512 16.5013 68.9512 17.052C68.9512 17.1173 68.9465 17.192 68.9372 17.276C68.9372 17.36 68.9372 17.4207 68.9372 17.458ZM65.8712 14.378C65.6192 14.378 65.3952 14.434 65.1992 14.546C65.0032 14.658 64.8352 14.8027 64.6952 14.98C64.5552 15.1573 64.4385 15.3627 64.3452 15.596C64.2612 15.8293 64.2005 16.0627 64.1632 16.296H67.3692C67.3692 16.1093 67.3365 15.904 67.2712 15.68C67.2152 15.456 67.1265 15.2507 67.0052 15.064C66.8839 14.868 66.7299 14.7047 66.5432 14.574C66.3565 14.4433 66.1325 14.378 65.8712 14.378Z" fill="#B7E6CB"/>
</svg>
